<svg width="52" height="51" viewBox="0 0 52 51" fill="none" xmlns="http://www.w3.org/2000/svg">
<path d="M25.9941 50.382C39.798 50.382 50.9883 39.2561 50.9883 25.5316C50.9883 11.8071 39.798 0.681236 25.9941 0.681236C12.1903 0.681236 1 11.8071 1 25.5316C1 39.2561 12.1903 50.382 25.9941 50.382Z" stroke="#B7B7B7"/>
<path d="M24.6945 32.8787L24.674 26.6195H21.9961V23.9369H24.674V22.1486C24.674 19.735 26.1661 18.5719 28.3155 18.5719C29.3451 18.5719 30.2299 18.6486 30.4878 18.683V21.2053L28.9971 21.206C27.8281 21.206 27.6018 21.7624 27.6018 22.5789V23.9369H30.9226L30.0299 26.6195H27.6018V32.8787H24.6945Z" fill="#1E2532"/>
</svg>
