<svg width="23" height="23" viewBox="0 0 23 23" fill="none" xmlns="http://www.w3.org/2000/svg">
<path d="M1.47813 8.37504C2.80833 4.149 6.76667 1.08337 11.4427 1.08337C16.8573 1.08337 21.3094 5.19483 21.8333 10.4584L19.75 10.0344M21.3552 14.625C20.6845 16.7415 19.357 18.5893 17.5653 19.9004C15.7736 21.2115 13.6108 21.9177 11.3906 21.9167C5.97604 21.9167 1.52396 17.8052 1 12.5417L3.08333 12.9657" stroke="#213481" stroke-width="1.5625" stroke-linecap="round" stroke-linejoin="round"/>
<path d="M8.29375 13.0917V15.1667C8.29136 15.3339 8.33138 15.499 8.41007 15.6465C8.48876 15.7941 8.60356 15.9193 8.74375 16.0105C9.62292 16.5605 10.2906 16.7219 11.4219 16.7563C12.4646 16.7844 13.1187 16.6209 14.0917 16.0125C14.2342 15.9207 14.3511 15.7941 14.4313 15.6447C14.5114 15.4953 14.5523 15.3279 14.55 15.1584V13.0917M16.6365 10.474V13.6146M6.26042 10.2959C6.6375 9.50004 8.97396 8.11462 11.1062 7.43025C11.3117 7.36495 11.5332 7.37009 11.7354 7.44483C13.6208 8.13442 15.7187 9.17921 16.4802 10.0261C16.8771 10.4688 16.4885 11.0334 16.0083 11.3823C15.0323 12.0917 13.9562 12.6427 11.7812 13.4792C11.5508 13.5675 11.2962 13.5693 11.0646 13.4844C8.83542 12.6563 6.75 11.5886 6.27812 10.648C6.24892 10.5944 6.23216 10.5349 6.22909 10.4739C6.22602 10.413 6.23673 10.3521 6.26042 10.2959Z" stroke="#213481" stroke-width="1.5625" stroke-linecap="round" stroke-linejoin="round"/>
</svg>
