<svg width="23" height="23" viewBox="0 0 23 23" fill="none" xmlns="http://www.w3.org/2000/svg">
<path d="M11.9375 1.09588C11.764 1.08737 11.5904 1.0832 11.4167 1.08338C5.66354 1.08338 1 5.74692 1 11.5C1 17.2532 5.66354 21.9167 11.4167 21.9167C17.1698 21.9167 21.8333 17.2532 21.8333 11.5C21.8333 10.6011 21.7187 9.72817 21.5052 8.89588" stroke="#213481" stroke-width="1.5625" stroke-linecap="round" stroke-linejoin="round"/>
<path d="M7.25002 14.625C7.73516 15.2719 8.36424 15.7969 9.08745 16.1585C9.81066 16.5201 10.6081 16.7084 11.4167 16.7084C12.2253 16.7084 13.0227 16.5201 13.7459 16.1585C14.4691 15.7969 15.0982 15.2719 15.5834 14.625M9.33335 8.89587H7.98648C7.5146 8.89587 7.06252 9.08337 6.72919 9.4167M13.5 8.89587H14.8469C15.3188 8.89587 15.7709 9.08337 16.1042 9.4167M15.4667 1.42816C16.4448 0.857329 17.2979 1.08754 17.8104 1.4542C18.0209 1.6042 18.1261 1.6792 18.1875 1.6792C18.25 1.6792 18.3542 1.6042 18.5646 1.4542C19.0771 1.08754 19.9302 0.857329 20.9084 1.42816C22.1917 2.17816 22.4813 4.65108 19.5229 6.73754C18.9584 7.13441 18.6761 7.33337 18.1875 7.33337C17.699 7.33337 17.4167 7.13545 16.8531 6.73754C13.8938 4.65108 14.1834 2.17816 15.4677 1.42816" stroke="#213481" stroke-width="1.5625" stroke-linecap="round" stroke-linejoin="round"/>
</svg>
