<svg width="52" height="52" viewBox="0 0 52 52" fill="none" xmlns="http://www.w3.org/2000/svg">
<path d="M25.9941 51.0828C39.798 51.0828 50.9883 39.9569 50.9883 26.2324C50.9883 12.5079 39.798 1.38203 25.9941 1.38203C12.1903 1.38203 1 12.5079 1 26.2324C1 39.9569 12.1903 51.0828 25.9941 51.0828Z" stroke="#B7B7B7"/>
<g clip-path="url(#clip0_35_45)">
<path d="M29.7435 18.7805H22.2452C20.1746 18.7805 18.4961 20.4493 18.4961 22.508V29.9631C18.4961 32.0218 20.1746 33.6907 22.2452 33.6907H29.7435C31.814 33.6907 33.4926 32.0218 33.4926 29.9631V22.508C33.4926 20.4493 31.814 18.7805 29.7435 18.7805Z" stroke="#1E2532" stroke-width="2" stroke-linecap="round" stroke-linejoin="round"/>
<path d="M28.9935 25.7665C29.086 26.387 28.9794 27.0206 28.6889 27.5774C28.3983 28.1341 27.9386 28.5856 27.3751 28.8676C26.8116 29.1496 26.173 29.2477 25.5501 29.1481C24.9273 29.0484 24.3519 28.7561 23.9058 28.3125C23.4597 27.869 23.1657 27.2969 23.0654 26.6777C22.9652 26.0584 23.0639 25.4235 23.3476 24.8632C23.6312 24.303 24.0853 23.8459 24.6453 23.557C25.2052 23.2681 25.8426 23.1621 26.4666 23.2541C27.1031 23.348 27.6924 23.6429 28.1475 24.0953C28.6025 24.5477 28.8991 25.1336 28.9935 25.7665Z" stroke="#1E2532" stroke-width="2" stroke-linecap="round" stroke-linejoin="round"/>
<ellipse cx="30.1172" cy="22.1331" rx="1.125" ry="1.11827" fill="white"/>
</g>
<defs>
<clipPath id="clip0_35_45">
<rect width="17.9958" height="17.8923" fill="white" transform="translate(16.9961 17.2883)"/>
</clipPath>
</defs>
</svg>
