<svg width="25" height="25" viewBox="0 0 25 25" fill="none" xmlns="http://www.w3.org/2000/svg">
<g clip-path="url(#clip0_34_404)">
<path d="M9.89375 6.03439C11.3729 4.05106 13.5969 3.47189 15.6427 4.02918C17.851 4.63022 19.7927 6.5271 20.4375 9.16876C20.4708 9.30418 20.4997 9.4396 20.524 9.57501C19.5932 9.24334 18.5807 9.2178 17.6344 9.5021C16.2938 8.51043 14.6333 8.34376 13.1573 8.88751C11.3083 9.5698 9.86459 11.3 9.53021 13.4771C9.10313 16.2646 10.801 18.7688 13.2021 20.8979L13.6063 21.2479C13.2802 21.2708 12.949 21.2198 12.6323 21.1521C12.4696 21.1171 12.3077 21.0782 12.1469 21.0354L11.5875 20.8792C6.61459 19.4802 3.28542 17.2917 2.33021 14.0208C1.56771 11.4104 2.30105 8.79689 3.91355 7.17189C5.4073 5.66668 7.62188 5.05626 9.89375 6.03439ZM11.5896 13.7927C12.0354 10.8844 15.399 9.45106 17.126 11.9469C17.1426 11.9701 17.1676 11.9858 17.1957 11.9907C17.2238 11.9956 17.2526 11.9892 17.276 11.9729C19.7521 10.2188 22.4219 12.7156 21.8458 15.6011C21.5125 17.2747 19.9604 18.6636 17.1896 19.7677L16.7365 19.9448L16.4625 20.0573C16.226 20.15 15.976 20.224 15.75 20.1844C15.525 20.1448 15.3156 19.9886 15.125 19.8219L14.8021 19.5302C12.3924 17.4566 11.3215 15.5441 11.5896 13.7927Z" fill="#213481"/>
</g>
<defs>
<clipPath id="clip0_34_404">
<rect width="25" height="25" fill="white"/>
</clipPath>
</defs>
</svg>
