<svg width="52" height="52" viewBox="0 0 52 52" fill="none" xmlns="http://www.w3.org/2000/svg">
<path d="M25.9941 50.7836C39.798 50.7836 50.9883 39.6577 50.9883 25.9332C50.9883 12.2087 39.798 1.08282 25.9941 1.08282C12.1903 1.08282 1 12.2087 1 25.9332C1 39.6577 12.1903 50.7836 25.9941 50.7836Z" stroke="#B7B7B7"/>
<path d="M33.2785 21.3108C32.7429 21.5791 32.2073 21.6685 31.5824 21.7579C32.2073 21.4002 32.6536 20.8637 32.8321 20.1484C32.2966 20.5061 31.6717 20.6849 30.9576 20.8637C30.422 20.3272 29.6186 19.9695 28.8152 19.9695C27.2977 19.9695 25.9587 21.3108 25.9587 22.9203C25.9587 23.1886 25.9587 23.3674 26.048 23.5463C23.6379 23.4568 21.4062 22.2944 19.978 20.5061C19.7102 20.9531 19.6209 21.4002 19.6209 22.0262C19.6209 23.0098 20.1565 23.9039 20.9599 24.4404C20.5136 24.4404 20.0673 24.2616 19.6209 24.0828C19.6209 25.5135 20.6029 26.6759 21.9418 26.9441C21.674 27.0336 21.4062 27.0336 21.1384 27.0336C20.9599 27.0336 20.7814 27.0336 20.6029 26.9441C20.9599 28.1066 22.0311 29.0008 23.3701 29.0008C22.3882 29.8055 21.1384 30.2526 19.7102 30.2526C19.4424 30.2526 19.2639 30.2526 18.9961 30.2526C20.3351 31.0574 21.8526 31.5939 23.4593 31.5939C28.8152 31.5939 31.761 27.123 31.761 23.278C31.761 23.1886 31.761 23.0098 31.761 22.9203C32.3858 22.4732 32.9214 21.9367 33.2785 21.3108Z" fill="#1E2532"/>
</svg>
