<svg width="22" height="21" viewBox="0 0 22 21" fill="none" xmlns="http://www.w3.org/2000/svg">
<path d="M10.375 2.37479C8.76883 2.37488 7.19873 2.85101 5.86305 3.74302C4.52738 4.63503 3.48604 5.9029 2.8706 7.38647C2.25516 8.87003 2.09322 10.5027 2.40526 12.0783C2.71729 13.6538 3.48929 15.1015 4.62373 16.2385C4.79943 16.4146 4.89801 16.6532 4.89778 16.9019C4.89754 17.1506 4.79851 17.3891 4.62248 17.5648C4.44644 17.7405 4.20781 17.8391 3.95909 17.8388C3.71037 17.8386 3.47193 17.7396 3.29623 17.5635C2.16132 16.4261 1.3172 15.032 0.83534 13.4992C0.353479 11.9664 0.248067 10.34 0.52803 8.75784C0.807993 7.17566 1.46509 5.68423 2.44367 4.40984C3.42226 3.13545 4.69352 2.11563 6.14981 1.43673C7.6061 0.757834 9.20455 0.439848 10.8098 0.509699C12.415 0.579551 13.9798 1.03518 15.3716 1.83801C16.7635 2.64085 17.9413 3.76724 18.8055 5.12181C19.6697 6.47639 20.1948 8.01926 20.3362 9.61979C19.8145 8.86381 19.0334 8.32561 18.1412 8.10729C17.6297 6.44703 16.5994 4.99445 15.2017 3.96273C13.8039 2.93101 12.1123 2.37447 10.375 2.37479ZM16.1712 8.15729C15.6262 6.81392 14.6312 5.70171 13.3566 5.01095C12.0821 4.32018 10.607 4.0938 9.18397 4.37053C7.7609 4.64726 6.47821 5.4099 5.55537 6.52797C4.63253 7.64605 4.1269 9.05006 4.12498 10.4998C4.12498 12.221 4.82248 13.7823 5.94748 14.9123C6.12318 15.0885 6.36169 15.1877 6.61053 15.188C6.85936 15.1884 7.09815 15.0899 7.27435 14.9142C7.45055 14.7385 7.54974 14.4999 7.55009 14.2511C7.55044 14.0023 7.45193 13.7635 7.27623 13.5873C6.80947 13.1186 6.45506 12.5502 6.23965 11.9249C6.02423 11.2995 5.95341 10.6334 6.03252 9.97673C6.11163 9.32004 6.33861 8.68984 6.69639 8.13352C7.05417 7.5772 7.53343 7.10925 8.09813 6.76485C8.66283 6.42045 9.29827 6.20858 9.95665 6.14516C10.615 6.08174 11.2792 6.16844 11.8993 6.39872C12.5193 6.629 13.0791 6.99687 13.5365 7.47468C13.9939 7.95248 14.337 8.52777 14.54 9.15729C14.9881 8.68851 15.5502 8.34396 16.1712 8.15729ZM7.87498 10.4998C7.87498 9.83675 8.13837 9.20086 8.60721 8.73202C9.07605 8.26318 9.71194 7.99979 10.375 7.99979C11.038 7.99979 11.6739 8.26318 12.1427 8.73202C12.6116 9.20086 12.875 9.83675 12.875 10.4998C12.875 11.1628 12.6116 11.7987 12.1427 12.2676C11.6739 12.7364 11.038 12.9998 10.375 12.9998C9.71194 12.9998 9.07605 12.7364 8.60721 12.2676C8.13837 11.7987 7.87498 11.1628 7.87498 10.4998ZM19.75 11.7498C19.75 12.4128 19.4866 13.0487 19.0177 13.5176C18.5489 13.9864 17.913 14.2498 17.25 14.2498C16.5869 14.2498 15.9511 13.9864 15.4822 13.5176C15.0134 13.0487 14.75 12.4128 14.75 11.7498C14.75 11.0867 15.0134 10.4509 15.4822 9.98202C15.9511 9.51318 16.5869 9.24979 17.25 9.24979C17.913 9.24979 18.5489 9.51318 19.0177 9.98202C19.4866 10.4509 19.75 11.0867 19.75 11.7498ZM21.625 17.3748C21.625 18.931 20.375 20.4998 17.25 20.4998C14.125 20.4998 12.875 18.9373 12.875 17.3748C12.875 16.8775 13.0725 16.4006 13.4242 16.049C13.7758 15.6973 14.2527 15.4998 14.75 15.4998H19.75C20.2473 15.4998 20.7242 15.6973 21.0758 16.049C21.4274 16.4006 21.625 16.8775 21.625 17.3748Z" fill="#213481"/>
</svg>
