<svg width="23" height="23" viewBox="0 0 23 23" fill="none" xmlns="http://www.w3.org/2000/svg">
<path d="M20.9375 22.698L17.7344 19.5209C17.4219 19.7118 17.0878 19.8552 16.7323 19.9511C16.3767 20.0469 16.0076 20.0945 15.625 20.0938C14.4792 20.0938 13.4983 19.6858 12.6823 18.8698C11.8663 18.0539 11.4583 17.073 11.4583 15.9271C11.4583 14.7813 11.8663 13.8004 12.6823 12.9844C13.4983 12.1684 14.4792 11.7605 15.625 11.7605C16.7708 11.7605 17.7517 12.1684 18.5677 12.9844C19.3837 13.8004 19.7917 14.7813 19.7917 15.9271C19.7917 16.3264 19.7396 16.7042 19.6354 17.0605C19.5312 17.4167 19.3837 17.7507 19.1927 18.0625L22.3958 21.2396L20.9375 22.698ZM4.16667 20.0938C3.02083 20.0938 2.03993 19.6858 1.22396 18.8698C0.407986 18.0539 0 17.073 0 15.9271C0 14.7813 0.407986 13.8004 1.22396 12.9844C2.03993 12.1684 3.02083 11.7605 4.16667 11.7605C5.3125 11.7605 6.2934 12.1684 7.10937 12.9844C7.92535 13.8004 8.33333 14.7813 8.33333 15.9271C8.33333 17.073 7.92535 18.0539 7.10937 18.8698C6.2934 19.6858 5.3125 20.0938 4.16667 20.0938ZM4.16667 18.0105C4.73958 18.0105 5.22986 17.8066 5.6375 17.399C6.04514 16.9914 6.24931 16.5007 6.25 15.9271C6.25069 15.3535 6.04688 14.8632 5.63854 14.4563C5.23021 14.0493 4.73958 13.8452 4.16667 13.8438C3.59375 13.8424 3.10347 14.0466 2.69583 14.4563C2.28819 14.866 2.08403 15.3563 2.08333 15.9271C2.08264 16.498 2.28681 16.9886 2.69583 17.399C3.10486 17.8094 3.59514 18.0132 4.16667 18.0105ZM15.625 18.0105C16.1979 18.0105 16.6885 17.8066 17.0969 17.399C17.5052 16.9914 17.709 16.5007 17.7083 15.9271C17.7076 15.3535 17.5038 14.8632 17.0969 14.4563C16.6899 14.0493 16.1993 13.8452 15.625 13.8438C15.0507 13.8424 14.5604 14.0466 14.1542 14.4563C13.7479 14.866 13.5437 15.3563 13.5417 15.9271C13.5396 16.498 13.7437 16.9886 14.1542 17.399C14.5646 17.8094 15.0549 18.0132 15.625 18.0105ZM4.16667 8.63546C3.02083 8.63546 2.03993 8.22747 1.22396 7.4115C0.407986 6.59553 0 5.61462 0 4.46879C0 3.32296 0.407986 2.34205 1.22396 1.52608C2.03993 0.71011 3.02083 0.302124 4.16667 0.302124C5.3125 0.302124 6.2934 0.71011 7.10937 1.52608C7.92535 2.34205 8.33333 3.32296 8.33333 4.46879C8.33333 5.61462 7.92535 6.59553 7.10937 7.4115C6.2934 8.22747 5.3125 8.63546 4.16667 8.63546ZM15.625 8.63546C14.4792 8.63546 13.4983 8.22747 12.6823 7.4115C11.8663 6.59553 11.4583 5.61462 11.4583 4.46879C11.4583 3.32296 11.8663 2.34205 12.6823 1.52608C13.4983 0.71011 14.4792 0.302124 15.625 0.302124C16.7708 0.302124 17.7517 0.71011 18.5677 1.52608C19.3837 2.34205 19.7917 3.32296 19.7917 4.46879C19.7917 5.61462 19.3837 6.59553 18.5677 7.4115C17.7517 8.22747 16.7708 8.63546 15.625 8.63546ZM4.16667 6.55212C4.73958 6.55212 5.23021 6.3483 5.63854 5.94067C6.04688 5.53303 6.25069 5.0424 6.25 4.46879C6.24931 3.89518 6.04549 3.4049 5.63854 2.99796C5.2316 2.59101 4.74097 2.38685 4.16667 2.38546C3.59236 2.38407 3.10208 2.58823 2.69583 2.99796C2.28958 3.40768 2.08542 3.89796 2.08333 4.46879C2.08125 5.03962 2.28542 5.53025 2.69583 5.94067C3.10625 6.35108 3.59653 6.5549 4.16667 6.55212ZM15.625 6.55212C16.1979 6.55212 16.6885 6.3483 17.0969 5.94067C17.5052 5.53303 17.709 5.0424 17.7083 4.46879C17.7076 3.89518 17.5038 3.4049 17.0969 2.99796C16.6899 2.59101 16.1993 2.38685 15.625 2.38546C15.0507 2.38407 14.5604 2.58823 14.1542 2.99796C13.7479 3.40768 13.5437 3.89796 13.5417 4.46879C13.5396 5.03962 13.7437 5.53025 14.1542 5.94067C14.5646 6.35108 15.0549 6.5549 15.625 6.55212Z" fill="#213481"/>
</svg>
